<?xml version="1.0" encoding="UTF-8"?>
<!DOCTYPE svg PUBLIC "-//W3C//DTD SVG 1.1//EN" "http://www.w3.org/Graphics/SVG/1.1/DTD/svg11.dtd">
<!-- Creator: CorelDRAW 2021 (64-Bit) -->
<svg xmlns="http://www.w3.org/2000/svg" xml:space="preserve" width="223.853mm" height="223.851mm" version="1.1" style="shape-rendering:geometricPrecision; text-rendering:geometricPrecision; image-rendering:optimizeQuality; fill-rule:evenodd; clip-rule:evenodd"
viewBox="0 0 22311.29 22311.15"
 xmlns:xlink="http://www.w3.org/1999/xlink"
 xmlns:xodm="http://www.corel.com/coreldraw/odm/2003">
 <defs>
  <style type="text/css">
   <![CDATA[
    .fil1 {fill:none}
    .fil0 {fill:#A00D3A}
    .fil2 {fill:#F3BC19}
   ]]>
  </style>
    <clipPath id="id0">
     <path d="M11155.64 0c6160.97,0 11155.64,4994.52 11155.64,11155.57 0,6161.06 -4994.68,11155.57 -11155.64,11155.57 -6160.97,0 -11155.64,-4994.52 -11155.64,-11155.57 0,-6161.06 4994.68,-11155.57 11155.64,-11155.57z"/>
    </clipPath>
     <clipPath id="id1">
      <path d="M21173.62 6243.55c-220.47,141.09 -848.12,453.04 -895.01,477.95 -156.21,83.06 -318.61,143.37 -481.77,209.95 -544.42,222.1 -1233.29,327.69 -1817.39,371.2 -81.95,6.09 -166.04,11.28 -251.63,15.34 -724.15,-1236.33 -1805.53,-2282.23 -3186.09,-2965.3 -3763.89,-1862.27 -8322.68,-321.39 -10184.95,3442.49 -377.97,763.94 -615.37,1560.62 -722.68,2360.83 -330.07,106.91 -642.54,262.77 -951.75,449.72 -309.96,187.36 -629.89,436.45 -884.99,693.55 -178.09,179.49 -349.39,365.41 -522.64,549.53 -88.45,94 -179.57,189.9 -282.45,268.43 -231.82,176.93 -583.24,326.28 -903.47,451.6 -58.52,-462.86 -88.78,-934.53 -88.78,-1413.28 0,-6161.06 4994.68,-11155.57 11155.64,-11155.57 4398.14,0 8201.3,2545.63 10017.98,6243.55z"/>
     </clipPath>
     <clipPath id="id2">
      <path d="M11155.64 0c6160.97,0 11155.64,4994.52 11155.64,11155.57 0,6161.06 -4994.68,11155.57 -11155.64,11155.57 -6160.97,0 -11155.64,-4994.52 -11155.64,-11155.57 0,-6161.06 4994.68,-11155.57 11155.64,-11155.57z"/>
     </clipPath>
     <clipPath id="id3">
      <path d="M1188.49 16169.87c226.05,-227.81 939.81,-683.83 1155.97,-791.03 612.29,-303.6 1547.3,-425.06 2209.73,-467.16 723.8,1281.23 1826.29,2366.5 3245.05,3068.47 3763.9,1862.27 8322.69,321.44 10184.96,-3442.47 391.7,-791.69 632.78,-1618.54 734.31,-2448.09 403.89,-104.52 780.26,-282.34 1177.03,-527.54 340.84,-210.62 620.86,-468.49 893.75,-759.42 203.53,-217.01 400.93,-444.82 628.9,-636.9 206.34,-173.81 521,-325.27 801.59,-444.33 60.27,469.56 91.51,948.21 91.51,1434.16 0,6161.06 -4994.68,11155.57 -11155.64,11155.57 -4357.49,0 -8131,-2498.75 -9967.15,-6141.27z"/>
     </clipPath>
     <clipPath id="id4">
      <path d="M11155.64 0c6160.97,0 11155.64,4994.52 11155.64,11155.57 0,6161.06 -4994.68,11155.57 -11155.64,11155.57 -6160.97,0 -11155.64,-4994.52 -11155.64,-11155.57 0,-6161.06 4994.68,-11155.57 11155.64,-11155.57z"/>
     </clipPath>
 </defs>
 <g id="Layer_x0020_1">
  <metadata id="CorelCorpID_0Corel-Layer"/>
  <g id="_1462692433008">
   <g>
   </g>
   <g style="clip-path:url(#id0)">
    <g id="_1462692413088">
     <path class="fil0" d="M16127.77 1147.11c2139.27,1058.46 3789.92,2710.05 4852.16,4657.54l269.37 378.12c-19.18,64.31 -914.34,508.8 -970.69,538.74 -156.21,83.06 -318.61,143.37 -481.77,209.95 -544.42,222.1 -1233.29,327.69 -1817.39,371.2 -81.95,6.09 -166.04,11.28 -251.63,15.34 -724.15,-1236.33 -1805.53,-2282.23 -3186.09,-2965.3 -3763.89,-1862.27 -8322.68,-321.39 -10184.95,3442.49 -377.97,763.94 -615.37,1560.62 -722.68,2360.83 -330.07,106.91 -642.54,262.77 -951.75,449.72 -309.96,187.36 -629.89,436.45 -884.99,693.55 -178.09,179.49 -349.39,365.41 -522.64,549.53 -88.45,94 -179.57,189.9 -282.45,268.43 -233.88,178.51 -589.51,328.94 -912.04,454.95 -269.35,-2107.84 57.95,-4315.63 1070.95,-6363.05 2737.83,-5533.53 9443.08,-7799.87 14976.61,-5062.05z"/>
    </g>
    <g style="clip-path:url(#id1)">
     <g>
      <path id="_1" class="fil1" d="M18896.58 7885.52c499.94,-2.5 905.8,-117.88 1405.39,-321.69 405.7,-165.53 1056.1,-397.38 1177.05,-918.67l-316.39 -559.78c-181.81,392.9 -832.99,617.27 -1169.01,758.86 -354.67,149.42 -899.04,501.15 -1362.75,253.9"/>
     </g>
    </g>
    <g style="clip-path:url(#id2)">
     <path class="fil1" d="M16127.77 1147.11c2139.27,1058.46 3789.92,2710.05 4852.16,4657.54l269.37 378.12c-19.18,64.31 -914.34,508.8 -970.69,538.74 -156.21,83.06 -318.61,143.37 -481.77,209.95 -544.42,222.1 -1233.29,327.69 -1817.39,371.2 -81.95,6.09 -166.04,11.28 -251.63,15.34 -724.15,-1236.33 -1805.53,-2282.23 -3186.09,-2965.3 -3763.89,-1862.27 -8322.68,-321.39 -10184.95,3442.49 -377.97,763.94 -615.37,1560.62 -722.68,2360.83 -330.07,106.91 -642.54,262.77 -951.75,449.72 -309.96,187.36 -629.89,436.45 -884.99,693.55 -178.09,179.49 -349.39,365.41 -522.64,549.53 -88.45,94 -179.57,189.9 -282.45,268.43 -233.88,178.51 -589.51,328.94 -912.04,454.95 -269.35,-2107.84 57.95,-4315.63 1070.95,-6363.05 2737.83,-5533.53 9443.08,-7799.87 14976.61,-5062.05z"/>
     <path class="fil2" d="M22254.12 9706.92c281.78,2124.09 -42.71,4351.99 -1064.33,6416.82 -2737.82,5533.53 -9443.07,7799.87 -14976.6,5062.02 -2166.87,-1072.09 -3832.16,-2752.81 -4892.68,-4733.11l-191.07 -210.87c104.3,-183.75 972.59,-742.72 1215.01,-862.93 612.29,-303.6 1547.3,-425.06 2209.73,-467.16 723.8,1281.23 1826.29,2366.5 3245.05,3068.47 3763.9,1862.27 8322.69,321.44 10184.96,-3442.47 391.7,-791.69 632.78,-1618.54 734.31,-2448.09 403.89,-104.52 780.26,-282.34 1177.03,-527.54 340.84,-210.62 620.86,-468.49 893.75,-759.42 203.53,-217.01 400.93,-444.82 628.9,-636.9 214.8,-180.94 547,-337.66 835.94,-458.82z"/>
    </g>
    <g style="clip-path:url(#id3)">
     <g>
      <path id="_1_0" class="fil1" d="M18896.58 7885.52c499.94,-2.5 905.8,-117.88 1405.39,-321.69 405.7,-165.53 1056.1,-397.38 1177.05,-918.67l-316.39 -559.78c-181.81,392.9 -832.99,617.27 -1169.01,758.86 -354.67,149.42 -899.04,501.15 -1362.75,253.9"/>
     </g>
    </g>
    <g style="clip-path:url(#id4)">
     <path class="fil1" d="M22254.12 9706.92c281.78,2124.09 -42.71,4351.99 -1064.33,6416.82 -2737.82,5533.53 -9443.07,7799.87 -14976.6,5062.02 -2166.87,-1072.09 -3832.16,-2752.81 -4892.68,-4733.11l-191.07 -210.87c104.3,-183.75 972.59,-742.72 1215.01,-862.93 612.29,-303.6 1547.3,-425.06 2209.73,-467.16 723.8,1281.23 1826.29,2366.5 3245.05,3068.47 3763.9,1862.27 8322.69,321.44 10184.96,-3442.47 391.7,-791.69 632.78,-1618.54 734.31,-2448.09 403.89,-104.52 780.26,-282.34 1177.03,-527.54 340.84,-210.62 620.86,-468.49 893.75,-759.42 203.53,-217.01 400.93,-444.82 628.9,-636.9 214.8,-180.94 547,-337.66 835.94,-458.82z"/>
     <path class="fil2" d="M10025.54 13366.58c-656.54,255.6 -1180.51,424.6 -1312.71,129.48 150.76,-124.03 1349.45,-791.22 1597.22,-835.99 251.49,-45.44 261.67,-9.78 397.6,104.25 116.41,97.7 -518.93,538.71 -682.12,602.25z"/>
     <path class="fil2" d="M8147.52 13380.64c-160.36,-8.95 -408.64,-23.94 -557.87,-63.55 112.8,-85.12 282.58,-167.22 420.53,-233.03 360.82,-172.13 1107.58,-665.73 1417.85,-219.82 -110.66,91.2 -642.6,313.41 -813.75,389.87 -162.61,72.63 -239.89,139.19 -466.75,126.53z"/>
     <path class="fil2" d="M7746.25 13125.25c-163.98,79.7 -431.19,-5.05 -675.91,-70.3 78.92,-91.82 420.66,-259.84 536.2,-306.26 230.86,-92.75 469.77,-77.44 637.42,117.29l-497.71 259.27z"/>
     <path class="fil2" d="M1438.31 15125.52c262.34,-267.7 677.73,-427.58 971.01,-547.25 1105.54,-451 2992.56,-573.85 4108.32,-310.92 1748.01,411.95 3673.41,187.45 5254.25,-517.72 169.33,-75.55 1309.78,-459.08 550.35,-781.69 -141.33,-60.05 -274.85,-88.45 -401.04,-98.11 -325.91,-24.9 -786.59,223.85 -1131.73,325.45 -121.48,11.95 -272.91,92.42 -393.58,96.98 -1275.3,48.2 -2552.46,-249.22 -3465.66,-536.77 -15.57,-3.55 -31.61,-8.8 -48.99,-15.54 -451.01,-143.87 -808.97,-283.59 -1027.75,-374.52 -115.11,-42.3 -236.42,-92.51 -369.46,-158.34 223.66,-427.78 1229.86,-489.35 1963.31,-596.82l807.39 -286.93 51.35 -36.18c144.09,-175.37 157.36,-410.78 9.44,-611.24 -306.4,-415.28 -1457.31,-46.8 -1796.54,3.71 -1569,233.63 -2072.61,-372.92 -3558.79,545.47 -614.52,379.76 -899.11,881.12 -1437.36,1334.55 -548.47,462.08 -1745.42,842.89 -2427.6,1098.62 -159.05,59.61 -266.22,82.82 -426.52,135.2 -709.25,231.67 -201.14,437.16 258.13,663.66l1539.04 762.04c39.76,19.99 332.69,750.19 367.71,765.68 143.76,63.65 249.66,-497.01 604.7,-859.33zm10166.76 -2960.71l0.91 -3.57c-4.95,-1.95 -10,-3.53 -14.97,-5.35l14.06 8.92z"/>
     <path class="fil0" d="M21332.51 6411.96c-23.12,99.65 -152.64,455.31 -209.04,535.34 -238.64,338.72 -726.89,516.02 -1055.04,649.9 -1105.53,451 -2992.56,573.85 -4108.32,310.92 -1748,-411.95 -3673.4,-187.45 -5254.25,517.72 -169.32,75.55 -1309.77,459.08 -550.35,781.69 141.34,60.04 274.85,88.45 401.04,98.11 325.92,24.9 786.59,-223.85 1131.73,-325.45 121.49,-11.95 272.92,-92.42 393.59,-96.98 1275.3,-48.2 2552.45,249.22 3465.66,536.76 15.56,3.56 31.61,8.81 48.99,15.54 451,143.88 808.97,283.6 1027.75,374.53 115.1,42.3 236.41,92.51 369.46,158.34 -223.66,427.78 -1229.87,489.35 -1963.31,596.82l-807.39 286.93 -51.35 36.18c-144.1,175.37 -157.36,410.77 -9.45,611.24 306.41,415.28 1457.32,46.8 1796.55,-3.71 1569,-233.63 2072.61,372.92 3558.78,-545.47 614.53,-379.76 899.11,-881.12 1437.37,-1334.55 548.47,-462.09 1745.41,-842.89 2427.6,-1098.62 159.04,-59.61 266.22,-82.82 426.51,-135.2 709.25,-231.67 201.15,-437.16 -258.12,-663.66l-1539.04 -762.04c-363.89,-182.95 -426.51,-426.34 -679.36,-544.35zm-10459.83 3598.71l-0.9 3.57c4.95,1.95 10,3.53 14.97,5.35l-14.07 -8.92z"/>
    </g>
   </g>
   <path class="fil1" d="M11155.64 0c6160.97,0 11155.64,4994.52 11155.64,11155.57 0,6161.06 -4994.68,11155.57 -11155.64,11155.57 -6160.97,0 -11155.64,-4994.52 -11155.64,-11155.57 0,-6161.06 4994.68,-11155.57 11155.64,-11155.57z"/>
   <path class="fil0" d="M11550.46 9235.17c238.69,-207.83 2177.23,-877.08 2355.08,-480.03 -150.76,124.03 -1490.08,715.5 -1737.84,760.27 -306.82,55.43 -480.65,-132.28 -617.24,-280.24z"/>
   <path class="fil0" d="M14330.23 8794.84c160.37,8.95 408.64,23.94 557.88,63.55 -112.8,85.12 -282.58,167.22 -420.53,233.03 -360.82,172.13 -1107.58,665.73 -1417.86,219.82 110.67,-91.2 642.61,-313.41 813.76,-389.87 162.61,-72.63 239.89,-139.19 466.74,-126.53z"/>
   <path class="fil0" d="M14731.5 9050.24c163.98,-79.7 431.19,5.05 675.92,70.29 -78.93,91.83 -420.67,259.85 -536.21,306.27 -230.86,92.75 -469.77,77.44 -637.41,-117.29l497.7 -259.27z"/>
  </g>
 </g>
</svg>
